HIERARCHY
ROOT Hips
{
	OFFSET -1.183845 70.721100 -4.620803
	CHANNELS 6 Xposition Yposition Zposition Xrotation Yrotation Zrotation
	JOINT Chest
	{
		OFFSET 0.771255 13.620499 -0.203233
		CHANNELS 3 Xrotation Yrotation Zrotation
		JOINT Chest2
		{
			OFFSET -4.997931 20.650337 2.766027
			CHANNELS 3 Xrotation Yrotation Zrotation
			JOINT Chest3
			{
				OFFSET -2.785441 14.603943 1.336461
				CHANNELS 3 Xrotation Yrotation Zrotation
				JOINT Neck
				{
					OFFSET -2.276324 16.969246 2.340710
					CHANNELS 3 Xrotation Yrotation Zrotation
					JOINT Head
					{
						OFFSET -4.578082 9.370544 1.030482
						CHANNELS 3 Xrotation Yrotation Zrotation
						End Site
						{
							OFFSET -4.515721 9.402924 1.010464
						}
					}
				}
				JOINT LeftCollar
				{
					OFFSET -1.862242 12.307198 6.846109
					CHANNELS 3 Xrotation Yrotation Zrotation
					JOINT LeftUpArm
					{
						OFFSET 14.651302 -3.384277 9.076634
						CHANNELS 3 Xrotation Yrotation Zrotation
						JOINT LeftLowArm
						{
							OFFSET 10.520871 -31.245567 7.263173
							CHANNELS 3 Xrotation Yrotation Zrotation
							JOINT LeftHand
							{
								OFFSET -3.562065 -29.143974 6.235981
								CHANNELS 3 Xrotation Yrotation Zrotation
								End Site
								{
									OFFSET -0.778505 -6.369587 1.362919
								}
							}
						}
					}
				}
				JOINT RightCollar
				{
					OFFSET -6.419641 12.670769 -0.220505
					CHANNELS 3 Xrotation Yrotation Zrotation
					JOINT RightUpArm
					{
						OFFSET -1.130584 -3.860260 -17.097269
						CHANNELS 3 Xrotation Yrotation Zrotation
						JOINT RightLowArm
						{
							OFFSET 2.428660 -31.053101 -13.020821
							CHANNELS 3 Xrotation Yrotation Zrotation
							JOINT RightHand
							{
								OFFSET -3.263740 -29.621742 -3.585464
								CHANNELS 3 Xrotation Yrotation Zrotation
								End Site
								{
									OFFSET -0.713324 -6.474125 -0.783646
								}
							}
						}
					}
				}
			}
		}
	}
	JOINT LeftUpLeg
	{
		OFFSET 4.180459 -0.101044 9.106739
		CHANNELS 3 Xrotation Yrotation Zrotation
		JOINT LeftLowLeg
		{
			OFFSET -33.037483 -23.197330 24.787052
			CHANNELS 3 Xrotation Yrotation Zrotation
			JOINT LeftFoot
			{
				OFFSET 37.511902 -17.471031 -16.976170
				CHANNELS 3 Xrotation Yrotation Zrotation
				JOINT LeftToe
				{
					OFFSET -4.571888 -23.131552 1.894543
					CHANNELS 3 Xrotation Yrotation Zrotation
					End Site
					{
						OFFSET -17.092703 -14.735628 7.089412
					}
				}
			}
		}
	}
	JOINT RightUpLeg
	{
		OFFSET -4.180473 0.100845 -9.106740
		CHANNELS 3 Xrotation Yrotation Zrotation
		JOINT RightLowLeg
		{
			OFFSET -21.634918 -42.114357 1.524575
			CHANNELS 3 Xrotation Yrotation Zrotation
			JOINT RightFoot
			{
				OFFSET 41.460751 2.080984 -16.651043
				CHANNELS 3 Xrotation Yrotation Zrotation
				JOINT RightToe
				{
					OFFSET 20.496418 -8.514225 -8.183031
					CHANNELS 3 Xrotation Yrotation Zrotation
					End Site
					{
						OFFSET 10.561886 -20.570034 -4.987629
					}
				}
			}
		}
	}
}
MOTION
Frames: 17
Frame Time: 0.033333
21.060192 22.530449 -38.967636 -20.229627 -3.650197 -84.173011 -11.383831 4.336676 -22.441650 -4.554142 1.755506 -12.960192 9.137442 -6.115670 11.045300 3.934188 11.628675 -15.860031 -0.000001 0.000002 0.000004 -11.624044 -21.176365 -1.166792 -50.705265 -22.585796 -57.255369 -34.192890 12.511910 12.091102 -0.000000 0.000001 -0.000000 16.323780 19.472724 -16.453403 -0.337105 31.784688 -47.581990 10.645045 -10.482219 -31.777691 -0.000000 0.000000 -0.000002 15.020064 18.711564 53.009330 -21.262922 -17.816776 50.677743 2.397447 32.600677 19.720844 -0.000002 0.000005 -0.000001 15.784395 -2.834552 16.039777 40.269084 31.563643 8.382485 3.110953 -2.230769 -13.270510 0.000001 -0.000001 0.000002 
21.065403 22.567619 -39.117695 -20.124140 -3.512153 -84.206909 -11.066255 4.228688 -22.289161 -5.465064 1.087021 -12.974817 9.753738 -5.435070 10.962532 4.205217 11.896807 -16.100189 -0.000000 0.000001 0.000002 -11.287827 -21.032444 -1.155270 -50.883209 -22.871583 -57.583262 -34.389941 11.946274 12.156599 -0.000003 0.000001 0.000000 16.361300 19.612178 -16.345705 -0.038331 32.260349 -47.895902 11.350127 -10.459567 -30.614288 -0.000001 0.000000 -0.000003 15.209581 18.659735 52.972666 -21.832252 -18.269621 51.008700 2.561312 32.492351 19.808875 -0.000000 0.000004 0.000000 16.250615 -2.875826 15.876114 40.703720 31.738837 7.995678 2.891682 -2.156005 -12.541363 0.000001 0.000002 -0.000001 
21.059645 22.605068 -39.261845 -19.835096 -3.874780 -84.386980 -11.577128 4.201877 -21.937758 -5.245331 1.234767 -12.945087 9.826294 -5.740318 10.809796 4.061242 11.540334 -15.983872 0.000000 0.000002 -0.000001 -11.244549 -21.199097 -1.208779 -50.841893 -22.832861 -57.393253 -34.255711 11.973331 11.814744 -0.000001 -0.000003 -0.000000 16.419309 19.819940 -16.415327 -0.021228 32.306194 -48.015007 11.369165 -10.491156 -29.756723 -0.000002 0.000005 0.000000 14.925802 18.624321 53.092594 -23.051272 -19.086110 51.371376 3.405138 32.244381 20.015483 0.000001 0.000003 -0.000001 16.211375 -2.841592 16.001178 40.486247 31.575910 8.073214 2.874834 -2.116653 -13.011153 -0.000000 0.000005 -0.000001 
21.055969 22.660858 -39.385017 -20.074954 -4.043824 -84.237065 -11.968274 4.277740 -22.233167 -4.576710 1.465666 -12.373550 9.257295 -6.157035 10.279472 4.184180 11.814585 -15.759905 0.000001 0.000002 0.000001 -10.976602 -21.622173 -0.622240 -51.425498 -23.320320 -57.685824 -34.074202 11.009272 11.702514 0.000000 -0.000001 -0.000001 16.380318 19.874232 -15.782802 0.731155 33.123545 -48.456606 12.778552 -10.128967 -28.977238 -0.000001 0.000002 -0.000002 14.704170 18.757325 52.985042 -24.101610 -19.750382 51.659214 3.818962 32.033977 20.006908 0.000002 0.000000 0.000004 15.820494 -2.891141 15.750932 41.729447 32.069439 7.238821 2.549884 -1.934124 -12.664693 -0.000003 0.000004 0.000000 
21.051453 22.715626 -39.499672 -20.041682 -3.832425 -84.222646 -11.641890 4.287301 -22.349417 -3.950890 1.699680 -12.007650 8.485357 -6.834662 10.019191 4.831339 12.382394 -15.852797 0.000002 -0.000001 -0.000001 -10.899980 -21.699637 -0.631780 -51.166238 -23.111986 -57.372633 -33.282795 11.207825 11.034623 0.000001 0.000001 0.000001 16.443568 20.167634 -15.865457 0.708300 32.898149 -48.415352 12.878473 -10.460991 -27.627193 -0.000000 0.000001 0.000001 14.937321 18.860891 52.821012 -23.157195 -19.145235 51.607441 2.853338 32.835981 20.342648 -0.000004 0.000006 0.000000 15.874201 -3.086001 15.630242 41.552248 31.940977 7.474499 3.198545 -1.570522 -11.910709 -0.000002 0.000005 0.000002 
21.051062 22.754684 -39.613739 -19.808655 -3.639503 -84.211964 -12.024261 4.295215 -22.133972 -2.452719 2.757296 -12.005397 7.657580 -8.194075 9.933839 4.864705 12.287261 -15.653194 -0.000000 0.000001 0.000001 -10.805983 -21.708812 -0.806198 -51.340558 -23.022034 -57.495276 -32.257457 11.482970 10.949323 -0.000001 -0.000004 0.000001 15.914267 19.843240 -15.698990 0.621131 32.981600 -48.539641 12.466787 -10.559122 -26.664584 -0.000001 0.000001 0.000001 15.094846 18.866693 52.688298 -23.229000 -19.189695 51.648777 2.881941 32.855116 20.399364 -0.000005 0.000004 0.000000 15.759803 -3.150803 15.724608 40.945232 31.663937 8.036026 3.894567 -1.393808 -12.255579 0.000001 -0.000000 0.000000 
21.046797 22.800972 -39.721584 -19.786114 -3.416334 -84.192340 -11.515864 4.297392 -22.303607 -3.027006 2.243737 -11.751728 7.989846 -7.881327 9.675830 5.061322 12.458108 -15.639864 0.000001 0.000001 0.000002 -10.861879 -21.710132 -0.977217 -50.666231 -22.747926 -57.051535 -31.332263 11.881246 10.006035 -0.000002 -0.000003 -0.000000 15.726140 19.708123 -15.764650 0.046196 32.643820 -48.154012 11.363428 -10.478644 -26.404864 -0.000000 0.000003 -0.000001 15.182865 18.847992 52.708788 -24.880392 -20.305210 52.023860 3.972575 32.275868 20.166514 -0.000003 0.000000 -0.000002 16.046628 -3.205153 15.679189 41.680236 31.951915 7.365978 3.614705 -1.474335 -11.510615 -0.000001 0.000001 0.000000 
21.056738 22.826172 -39.835770 -20.103514 -3.328900 -84.425400 -11.554516 4.280308 -22.181039 -2.910559 2.384273 -11.877031 7.832241 -7.726587 9.970785 5.433534 12.400986 -15.537820 -0.000001 0.000001 0.000002 -10.868259 -21.417673 -1.034333 -49.573042 -22.622573 -56.384072 -31.266198 11.748229 9.630743 0.000001 -0.000001 -0.000001 15.811874 19.565523 -15.861992 -0.766430 32.719222 -47.670619 10.810425 -10.332582 -25.949658 0.000001 0.000000 -0.000002 15.079695 19.062071 53.081406 -24.542654 -19.949302 51.863744 3.494494 32.200172 20.123964 -0.000001 0.000002 -0.000001 16.007472 -3.274215 15.856315 43.082678 32.349149 6.191234 2.858409 -1.428862 -11.387285 -0.000000 0.000001 0.000000 
21.060608 22.851334 -39.948730 -20.061524 -3.190329 -84.479058 -11.487990 4.260963 -22.161935 -2.642885 2.610305 -12.059168 7.855611 -8.052197 10.132931 5.040000 11.827583 -15.503700 0.000001 0.000001 0.000001 -11.110733 -21.515642 -0.930623 -49.350518 -22.546053 -56.296393 -31.090393 11.808426 10.185391 0.000001 0.000001 0.000000 15.991399 19.748529 -16.034252 -1.273867 32.552299 -47.217593 10.478012 -10.426352 -25.474750 0.000001 -0.000000 -0.000000 15.197740 19.083385 53.092614 -24.150335 -19.655855 51.677949 3.683470 32.285488 20.205358 -0.000006 0.000003 -0.000001 16.234653 -3.324006 15.895927 43.187269 32.377054 6.125998 2.460619 -1.489370 -12.110425 -0.000003 -0.000000 0.000001 
21.067808 22.883621 -40.051025 -20.009058 -3.304103 -84.439033 -11.537039 4.339620 -22.350655 -2.420697 2.526309 -11.587360 7.441214 -8.252065 9.671591 5.609509 12.289762 -15.424087 -0.000001 0.000001 0.000002 -11.029868 -21.267457 -1.301359 -48.421209 -22.150628 -55.876005 -30.217481 12.232504 9.350605 -0.000001 -0.000004 0.000000 15.794975 19.822078 -16.173828 -1.856471 31.475486 -46.362976 9.411957 -10.354545 -25.507249 -0.000000 -0.000002 0.000002 15.285750 19.117747 52.935831 -23.918008 -19.530786 51.749123 3.036838 32.418882 20.113126 -0.000002 0.000004 0.000000 16.058941 -3.429426 15.800077 43.718948 32.516837 5.645855 2.404564 -1.479513 -11.907488 0.000000 0.000003 0.000001 
21.060865 22.924736 -40.140907 -19.889559 -3.141838 -84.265417 -11.481889 4.372378 -22.618848 -2.208501 2.566309 -11.274976 7.311272 -8.669090 9.369728 5.737456 12.450958 -15.125000 0.000001 0.000000 -0.000001 -10.884025 -21.271405 -1.208887 -48.559278 -22.271678 -55.745016 -29.702331 12.339884 9.193783 -0.000002 -0.000003 -0.000001 15.444188 19.444994 -15.923780 -2.049589 31.573403 -46.074496 8.523977 -10.358887 -25.467484 0.000001 -0.000000 -0.000000 15.652051 18.928681 52.772128 -24.903355 -20.230052 51.956651 3.835971 32.217579 20.140088 -0.000001 0.000003 -0.000001 16.440448 -3.399315 15.564401 42.835378 32.265827 6.428997 2.735602 -1.527420 -12.233445 -0.000000 0.000003 0.000001 
21.066483 22.939079 -40.239677 -20.229514 -3.496138 -84.422238 -11.713149 4.336471 -22.335950 -2.227029 2.583542 -11.343803 7.207636 -8.391325 9.383674 5.404278 11.996419 -15.302713 0.000001 0.000003 0.000000 -10.742412 -21.173598 -1.251737 -48.235428 -22.218351 -55.740668 -29.341653 12.514612 8.819487 0.000001 -0.000002 -0.000000 15.313670 19.158199 -15.942029 -2.243105 31.441601 -45.786129 8.015226 -10.251463 -25.769122 0.000001 -0.000000 0.000001 15.260236 18.990074 52.868553 -24.522415 -19.928270 51.886010 3.887268 32.412267 20.439590 -0.000001 0.000003 0.000004 16.060276 -3.416078 15.467401 44.525225 32.777770 4.982346 1.928964 -1.496135 -12.036066 0.000002 0.000001 0.000000 
21.073343 22.959187 -40.334217 -20.447884 -3.648957 -84.425448 -12.173212 4.368817 -22.303488 -1.957265 2.799452 -11.391318 7.191596 -8.356194 9.478669 5.224912 11.748353 -15.401658 -0.000001 0.000001 -0.000001 -10.872512 -21.084425 -1.353224 -47.615236 -22.223764 -55.557250 -29.271705 12.518257 8.676213 0.000002 -0.000004 0.000000 15.492314 19.378756 -16.186193 -2.442763 30.812056 -45.154445 7.833056 -10.250784 -25.417313 0.000001 0.000001 0.000002 14.840041 19.008755 53.005253 -24.155048 -19.611124 51.747009 3.391077 31.863638 20.086553 0.000003 0.000003 0.000002 15.846223 -3.400785 15.460500 45.135608 32.880602 4.455688 1.595547 -1.451818 -11.993878 0.000003 -0.000000 0.000001 
21.072187 22.944557 -40.446640 -20.565536 -3.631969 -84.628530 -11.925959 4.288110 -22.003359 -2.765065 2.467939 -11.992554 7.926935 -7.748082 10.036007 5.341145 11.923457 -15.436718 0.000002 0.000001 -0.000001 -10.981657 -21.027303 -1.443139 -47.302537 -22.133788 -55.668893 -29.017116 12.690322 7.918097 -0.000002 -0.000002 0.000001 15.487159 18.809166 -16.308523 -3.373502 30.669506 -44.480849 7.188390 -10.132107 -25.545338 0.000001 -0.000002 0.000002 14.603622 19.106747 53.282528 -25.040259 -20.218991 51.887007 4.240886 31.253925 19.777967 -0.000001 0.000006 0.000000 15.924192 -3.379968 15.564444 45.720614 33.130147 3.915306 1.233516 -1.596151 -11.560710 -0.000000 0.000004 0.000001 
21.069727 22.955097 -40.542755 -20.433713 -3.594879 -84.469195 -12.097374 4.391348 -22.349436 -2.226851 2.669180 -11.619947 7.489000 -8.399431 9.834226 5.679418 12.313364 -15.328468 -0.000000 0.000000 -0.000003 -10.952387 -21.010400 -1.561247 -46.643369 -21.892215 -55.090547 -28.663640 12.909565 7.163429 -0.000000 -0.000003 -0.000001 15.748021 19.355747 -16.461161 -3.368720 30.048543 -44.328676 6.868781 -10.217598 -25.254655 -0.000001 0.000003 0.000002 14.845865 19.051634 53.050475 -23.398632 -19.129804 51.542260 2.886008 32.244193 20.056970 -0.000004 0.000005 0.000002 15.859882 -3.384054 15.580111 45.031051 32.949058 4.487850 1.846967 -1.621556 -11.260122 -0.000001 -0.000001 0.000000 
21.059284 22.972710 -40.632435 -20.315129 -3.852661 -84.484352 -12.208562 4.431309 -22.468939 -2.615613 2.208625 -11.250430 7.726397 -8.177337 9.409875 5.711714 12.455323 -14.987153 -0.000001 0.000001 -0.000005 -10.927712 -20.915241 -1.685606 -46.684681 -21.893763 -55.050293 -28.422511 13.066241 7.113829 -0.000001 -0.000003 -0.000001 15.567389 19.343765 -16.339016 -3.348462 29.913978 -44.211640 5.886301 -10.190234 -24.708377 0.000001 -0.000000 0.000001 14.692087 19.046669 53.030716 -23.521201 -19.245526 51.643832 2.919088 32.522438 20.263503 -0.000003 0.000002 -0.000001 16.018487 -3.415030 15.488052 45.683386 33.146348 3.781781 1.173095 -1.786979 -10.817329 0.000002 0.000001 -0.000003 
21.060047 22.972958 -40.727367 -20.304170 -3.817123 -84.459442 -12.104757 4.415396 -22.532763 -2.593422 2.233129 -11.285421 7.714523 -8.319980 9.477517 5.216275 11.890978 -14.899395 -0.000000 -0.000001 -0.000001 -11.004217 -20.848688 -1.671442 -46.619688 -21.980440 -55.148682 -28.136679 12.973249 6.958969 -0.000000 0.000002 -0.000002 15.223356 19.003190 -16.108204 -3.373361 29.903989 -44.193855 5.574729 -10.080410 -24.671770 -0.000002 0.000002 0.000001 14.877487 19.036909 53.006428 -23.189862 -19.053759 51.637764 2.694240 32.521147 20.140332 -0.000000 -0.000001 0.000002 15.918903 -3.356504 15.513511 44.757441 32.880380 4.611471 1.517499 -1.804147 -11.403035 -0.000001 0.000002 0.000002 
